<svg width="44" height="44" viewBox="0 0 44 44" fill="none" xmlns="http://www.w3.org/2000/svg">
    <g clip-path="url(#clip0_382_1569)">
        <path
            d="M31.1666 27.4997H34.8333V31.1663H31.1666V27.4997ZM31.1666 20.1663H34.8333V23.833H31.1666V20.1663ZM31.1666 12.833H34.8333V16.4997H31.1666V12.833ZM25.1899 12.833L27.4999 14.373V12.833H25.1899Z"
            fill="black" />
        <path
            d="M18.3333 5.5V8.26833L21.9999 10.7067V9.16667H38.4999V34.8333H31.1666V38.5H42.1666V5.5H18.3333Z"
            fill="black" />
        <path
            d="M14.9783 10.4502L27.4999 18.7919V38.5002H1.83325V19.2135L14.9783 10.4502ZM18.3333 34.8335H23.8333V20.4602L14.9783 14.8319L5.49992 20.8635V34.8335H10.9999V23.8335H18.3333V34.8335Z"
            fill="black" />
    </g>
    <defs>
        <clipPath id="clip0_382_1569">
            <rect width="44" height="44" fill="white" />
        </clipPath>
    </defs>
</svg>