<svg width="42" height="42" viewBox="0 0 42 42" fill="none" xmlns="http://www.w3.org/2000/svg">
<g clip-path="url(#clip0_382_1560)">
<path d="M15.75 24.0625C11.655 24.0625 3.5 26.11 3.5 30.1875V33.25H28V30.1875C28 26.11 19.845 24.0625 15.75 24.0625ZM7.595 29.75C9.065 28.735 12.6175 27.5625 15.75 27.5625C18.8825 27.5625 22.435 28.735 23.905 29.75H7.595ZM15.75 21C19.1275 21 21.875 18.2525 21.875 14.875C21.875 11.4975 19.1275 8.75 15.75 8.75C12.3725 8.75 9.625 11.4975 9.625 14.875C9.625 18.2525 12.3725 21 15.75 21ZM15.75 12.25C17.2025 12.25 18.375 13.4225 18.375 14.875C18.375 16.3275 17.2025 17.5 15.75 17.5C14.2975 17.5 13.125 16.3275 13.125 14.875C13.125 13.4225 14.2975 12.25 15.75 12.25ZM28.07 24.1675C30.1 25.6375 31.5 27.5975 31.5 30.1875V33.25H38.5V30.1875C38.5 26.6525 32.375 24.64 28.07 24.1675ZM26.25 21C29.6275 21 32.375 18.2525 32.375 14.875C32.375 11.4975 29.6275 8.75 26.25 8.75C25.305 8.75 24.43 8.9775 23.625 9.3625C24.7275 10.92 25.375 12.8275 25.375 14.875C25.375 16.9225 24.7275 18.83 23.625 20.3875C24.43 20.7725 25.305 21 26.25 21Z" fill="black"/>
</g>
<defs>
<clipPath id="clip0_382_1560">
<rect width="42" height="42" fill="white"/>
</clipPath>
</defs>
</svg>
