<svg width="40" height="40" viewBox="0 0 40 40" fill="none" xmlns="http://www.w3.org/2000/svg">
<path d="M26.6666 3.33301V5.33822C25.4292 5.64001 24.3328 6.15826 23.5416 6.97559L21.9498 6.05762L20.2831 8.94173L21.9628 9.91178C21.8169 10.4915 21.6666 11.0739 21.6666 11.6663C21.6666 12.2588 21.8169 12.8411 21.9628 13.4209L20.2831 14.391L21.9498 17.2751L23.5416 16.3571C24.3328 17.1744 25.4292 17.6927 26.6666 17.9945V19.9997H29.9999V17.9945C31.2373 17.6927 32.3338 17.1744 33.1249 16.3571L34.7167 17.2751L36.3834 14.391L34.7037 13.4209C34.8496 12.8411 34.9999 12.2588 34.9999 11.6663C34.9999 11.0739 34.8496 10.4915 34.7037 9.91178L36.3834 8.94173L34.7167 6.05762L33.1249 6.97559C32.3338 6.15826 31.2373 5.64001 29.9999 5.33822V3.33301H26.6666ZM28.3333 8.33301C29.5833 8.33301 30.3086 8.74175 30.8365 9.33561C31.3644 9.92948 31.6666 10.7867 31.6666 11.6663C31.6666 12.546 31.3644 13.4032 30.8365 13.9971C30.3086 14.5909 29.5833 14.9997 28.3333 14.9997C27.0833 14.9997 26.3579 14.5909 25.83 13.9971C25.3021 13.4032 24.9999 12.546 24.9999 11.6663C24.9999 10.7867 25.3021 9.92948 25.83 9.33561C26.3579 8.74175 27.0833 8.33301 28.3333 8.33301ZM11.6666 16.6663V18.6683C9.81548 19.022 8.17344 19.7534 7.08651 20.9762C7.05457 21.0122 7.04607 21.0603 7.01489 21.0967L5.50773 20.2243L3.84106 23.1084L5.44588 24.0361C5.18367 24.8938 4.99992 25.7767 4.99992 26.6663C4.99992 27.556 5.18367 28.4389 5.44588 29.2966L3.84106 30.2243L5.50773 33.1084L7.01489 32.236C7.04607 32.2724 7.05457 32.3205 7.08651 32.3564C8.17344 33.5792 9.81548 34.3107 11.6666 34.6644V36.6663H14.9999V34.6644C16.851 34.3107 18.4931 33.5793 19.58 32.3564C19.6119 32.3205 19.6204 32.2724 19.6516 32.236L21.1588 33.1084L22.8254 30.2243L21.2206 29.2966C21.4828 28.4389 21.6666 27.556 21.6666 26.6663C21.6666 25.7767 21.4828 24.8938 21.2206 24.0361L22.8254 23.1084L21.1588 20.2243L19.6516 21.0967C19.6204 21.0603 19.6119 21.0122 19.58 20.9762C18.4931 19.7534 16.851 19.022 14.9999 18.6683V16.6663H11.6666ZM13.3333 21.6663C15.1388 21.6663 16.2809 22.2834 17.0865 23.1898C17.8922 24.0961 18.3333 25.37 18.3333 26.6663C18.3333 27.9626 17.8922 29.2365 17.0865 30.1429C16.2809 31.0493 15.1388 31.6663 13.3333 31.6663C11.5277 31.6663 10.3857 31.0493 9.58 30.1429C8.77434 29.2365 8.33325 27.9626 8.33325 26.6663C8.33325 25.37 8.77434 24.0961 9.58 23.1898C10.3857 22.2834 11.5277 21.6663 13.3333 21.6663ZM13.3333 24.9997C12.8912 24.9997 12.4673 25.1753 12.1547 25.4878C11.8422 25.8004 11.6666 26.2243 11.6666 26.6663C11.6666 27.1084 11.8422 27.5323 12.1547 27.8449C12.4673 28.1574 12.8912 28.333 13.3333 28.333C13.7753 28.333 14.1992 28.1574 14.5118 27.8449C14.8243 27.5323 14.9999 27.1084 14.9999 26.6663C14.9999 26.2243 14.8243 25.8004 14.5118 25.4878C14.1992 25.1753 13.7753 24.9997 13.3333 24.9997Z" fill="black"/>
</svg>
